<mxfile host="app.diagrams.net" agent="Mozilla/5.0 (Macintosh; Intel Mac OS X 10.15; rv:135.0) Gecko/20100101 Firefox/135.0" version="26.0.11">
  <diagram name="Data Flow" id="qsl-yLtg4liw6EHXuBID">
    <mxGraphModel dx="1164" dy="985" grid="1" gridSize="10" guides="1" tooltips="1" connect="1" arrows="1" fold="1" page="1" pageScale="1" pageWidth="1920" pageHeight="1200" math="0" shadow="0">
      <root>
        <mxCell id="PmAsDYt7ePFWswJWPdAt-0" />
        <mxCell id="PmAsDYt7ePFWswJWPdAt-1" parent="PmAsDYt7ePFWswJWPdAt-0" />
        <mxCell id="n8bJTZ1ovyGtcUzWuUE2-2" value="" style="rounded=0;whiteSpace=wrap;html=1;fillColor=none;dashed=1;" parent="PmAsDYt7ePFWswJWPdAt-1" vertex="1">
          <mxGeometry x="390" y="280" width="200" height="500" as="geometry" />
        </mxCell>
        <mxCell id="n8bJTZ1ovyGtcUzWuUE2-3" value="&lt;font style=&quot;font-size: 24px;&quot;&gt;Sources&lt;/font&gt;" style="rounded=1;whiteSpace=wrap;html=1;strokeColor=none;" parent="PmAsDYt7ePFWswJWPdAt-1" vertex="1">
          <mxGeometry x="430" y="260" width="120" height="40" as="geometry" />
        </mxCell>
        <mxCell id="D8R9sGTT4eO_Y8YIvJOX-3" style="edgeStyle=orthogonalEdgeStyle;rounded=0;orthogonalLoop=1;jettySize=auto;html=1;entryX=0;entryY=0.5;entryDx=0;entryDy=0;" parent="PmAsDYt7ePFWswJWPdAt-1" target="hnOc7kBfibrwKYlpnwC0-0" edge="1">
          <mxGeometry relative="1" as="geometry">
            <mxPoint x="513.1199999999997" y="460" as="sourcePoint" />
          </mxGeometry>
        </mxCell>
        <mxCell id="D8R9sGTT4eO_Y8YIvJOX-4" style="edgeStyle=orthogonalEdgeStyle;rounded=0;orthogonalLoop=1;jettySize=auto;html=1;entryX=0;entryY=0.5;entryDx=0;entryDy=0;" parent="PmAsDYt7ePFWswJWPdAt-1" target="5szykNnx05lKGsdo6Biz-0" edge="1">
          <mxGeometry relative="1" as="geometry">
            <mxPoint x="513.1199999999997" y="460" as="sourcePoint" />
          </mxGeometry>
        </mxCell>
        <mxCell id="D8R9sGTT4eO_Y8YIvJOX-5" style="edgeStyle=orthogonalEdgeStyle;rounded=0;orthogonalLoop=1;jettySize=auto;html=1;entryX=0;entryY=0.5;entryDx=0;entryDy=0;" parent="PmAsDYt7ePFWswJWPdAt-1" target="hnOc7kBfibrwKYlpnwC0-1" edge="1">
          <mxGeometry relative="1" as="geometry">
            <mxPoint x="513.1199999999997" y="460" as="sourcePoint" />
          </mxGeometry>
        </mxCell>
        <mxCell id="-fXMBUoAsH7tqhl6yJGk-2" style="edgeStyle=orthogonalEdgeStyle;rounded=0;orthogonalLoop=1;jettySize=auto;html=1;entryX=0;entryY=0.5;entryDx=0;entryDy=0;" parent="PmAsDYt7ePFWswJWPdAt-1" target="D8R9sGTT4eO_Y8YIvJOX-8" edge="1">
          <mxGeometry relative="1" as="geometry">
            <mxPoint x="524.5" y="654" as="sourcePoint" />
          </mxGeometry>
        </mxCell>
        <mxCell id="-fXMBUoAsH7tqhl6yJGk-3" style="edgeStyle=orthogonalEdgeStyle;rounded=0;orthogonalLoop=1;jettySize=auto;html=1;entryX=0;entryY=0.5;entryDx=0;entryDy=0;" parent="PmAsDYt7ePFWswJWPdAt-1" target="D8R9sGTT4eO_Y8YIvJOX-6" edge="1">
          <mxGeometry relative="1" as="geometry">
            <mxPoint x="524.5" y="654" as="sourcePoint" />
          </mxGeometry>
        </mxCell>
        <mxCell id="-fXMBUoAsH7tqhl6yJGk-4" style="edgeStyle=orthogonalEdgeStyle;rounded=0;orthogonalLoop=1;jettySize=auto;html=1;" parent="PmAsDYt7ePFWswJWPdAt-1" target="D8R9sGTT4eO_Y8YIvJOX-7" edge="1">
          <mxGeometry relative="1" as="geometry">
            <mxPoint x="524.5" y="654" as="sourcePoint" />
          </mxGeometry>
        </mxCell>
        <mxCell id="4ZKNdrfmacIxx5nxEuMF-5" value="" style="rounded=1;whiteSpace=wrap;html=1;fillColor=none;strokeColor=#FFB366;fillStyle=auto;arcSize=5;" parent="PmAsDYt7ePFWswJWPdAt-1" vertex="1">
          <mxGeometry x="673" y="340" width="220" height="440" as="geometry" />
        </mxCell>
        <mxCell id="4ZKNdrfmacIxx5nxEuMF-6" value="Bronze Layer" style="rounded=1;whiteSpace=wrap;html=1;fillColor=none;strokeColor=#FFB366;fontSize=20;fontStyle=1" parent="PmAsDYt7ePFWswJWPdAt-1" vertex="1">
          <mxGeometry x="673" y="280" width="220" height="50" as="geometry" />
        </mxCell>
        <mxCell id="JOEkhZLCIWdWsLoKPhBo-8" style="edgeStyle=orthogonalEdgeStyle;rounded=0;orthogonalLoop=1;jettySize=auto;html=1;exitX=1;exitY=0.5;exitDx=0;exitDy=0;entryX=0;entryY=0.5;entryDx=0;entryDy=0;" edge="1" parent="PmAsDYt7ePFWswJWPdAt-1" source="5szykNnx05lKGsdo6Biz-0" target="JOEkhZLCIWdWsLoKPhBo-2">
          <mxGeometry relative="1" as="geometry" />
        </mxCell>
        <mxCell id="5szykNnx05lKGsdo6Biz-0" value="crm_sales_details" style="rounded=1;whiteSpace=wrap;html=1;fillColor=#FFB366;strokeColor=none;fontSize=16;fontStyle=0" parent="PmAsDYt7ePFWswJWPdAt-1" vertex="1">
          <mxGeometry x="694" y="386" width="180" height="40" as="geometry" />
        </mxCell>
        <mxCell id="JOEkhZLCIWdWsLoKPhBo-11" style="edgeStyle=orthogonalEdgeStyle;rounded=0;orthogonalLoop=1;jettySize=auto;html=1;exitX=1;exitY=0.5;exitDx=0;exitDy=0;" edge="1" parent="PmAsDYt7ePFWswJWPdAt-1" source="hnOc7kBfibrwKYlpnwC0-0" target="JOEkhZLCIWdWsLoKPhBo-3">
          <mxGeometry relative="1" as="geometry" />
        </mxCell>
        <mxCell id="hnOc7kBfibrwKYlpnwC0-0" value="crm_cust_info" style="rounded=1;whiteSpace=wrap;html=1;fillColor=#FFB366;strokeColor=#d79b00;fontSize=16;fontStyle=0" parent="PmAsDYt7ePFWswJWPdAt-1" vertex="1">
          <mxGeometry x="694" y="440" width="180" height="40" as="geometry" />
        </mxCell>
        <mxCell id="JOEkhZLCIWdWsLoKPhBo-10" style="edgeStyle=orthogonalEdgeStyle;rounded=0;orthogonalLoop=1;jettySize=auto;html=1;exitX=1;exitY=0.5;exitDx=0;exitDy=0;entryX=0;entryY=0.5;entryDx=0;entryDy=0;" edge="1" parent="PmAsDYt7ePFWswJWPdAt-1" source="hnOc7kBfibrwKYlpnwC0-1" target="JOEkhZLCIWdWsLoKPhBo-4">
          <mxGeometry relative="1" as="geometry" />
        </mxCell>
        <mxCell id="hnOc7kBfibrwKYlpnwC0-1" value="crm_prd_info" style="rounded=1;whiteSpace=wrap;html=1;fillColor=#FFB366;strokeColor=#d79b00;fontSize=16;fontStyle=0" parent="PmAsDYt7ePFWswJWPdAt-1" vertex="1">
          <mxGeometry x="694" y="500" width="180" height="40" as="geometry" />
        </mxCell>
        <mxCell id="JOEkhZLCIWdWsLoKPhBo-13" style="edgeStyle=orthogonalEdgeStyle;rounded=0;orthogonalLoop=1;jettySize=auto;html=1;exitX=1;exitY=0.5;exitDx=0;exitDy=0;" edge="1" parent="PmAsDYt7ePFWswJWPdAt-1" source="D8R9sGTT4eO_Y8YIvJOX-6" target="JOEkhZLCIWdWsLoKPhBo-5">
          <mxGeometry relative="1" as="geometry" />
        </mxCell>
        <mxCell id="D8R9sGTT4eO_Y8YIvJOX-6" value="erp_cust_az12" style="rounded=1;whiteSpace=wrap;html=1;fillColor=#FFB366;strokeColor=#d79b00;fontSize=16;fontStyle=0" parent="PmAsDYt7ePFWswJWPdAt-1" vertex="1">
          <mxGeometry x="694" y="580" width="180" height="40" as="geometry" />
        </mxCell>
        <mxCell id="JOEkhZLCIWdWsLoKPhBo-14" style="edgeStyle=orthogonalEdgeStyle;rounded=0;orthogonalLoop=1;jettySize=auto;html=1;exitX=1;exitY=0.5;exitDx=0;exitDy=0;" edge="1" parent="PmAsDYt7ePFWswJWPdAt-1" source="D8R9sGTT4eO_Y8YIvJOX-7" target="JOEkhZLCIWdWsLoKPhBo-6">
          <mxGeometry relative="1" as="geometry" />
        </mxCell>
        <mxCell id="D8R9sGTT4eO_Y8YIvJOX-7" value="erp_loc_a101" style="rounded=1;whiteSpace=wrap;html=1;fillColor=#FFB366;strokeColor=#d79b00;fontSize=16;fontStyle=0" parent="PmAsDYt7ePFWswJWPdAt-1" vertex="1">
          <mxGeometry x="694" y="634" width="180" height="40" as="geometry" />
        </mxCell>
        <mxCell id="JOEkhZLCIWdWsLoKPhBo-15" style="edgeStyle=orthogonalEdgeStyle;rounded=0;orthogonalLoop=1;jettySize=auto;html=1;exitX=1;exitY=0.5;exitDx=0;exitDy=0;" edge="1" parent="PmAsDYt7ePFWswJWPdAt-1" source="D8R9sGTT4eO_Y8YIvJOX-8" target="JOEkhZLCIWdWsLoKPhBo-7">
          <mxGeometry relative="1" as="geometry" />
        </mxCell>
        <mxCell id="D8R9sGTT4eO_Y8YIvJOX-8" value="erp_px_cat_g1v2" style="rounded=1;whiteSpace=wrap;html=1;fillColor=#FFB366;strokeColor=#d79b00;fontSize=16;fontStyle=0" parent="PmAsDYt7ePFWswJWPdAt-1" vertex="1">
          <mxGeometry x="694" y="694" width="180" height="40" as="geometry" />
        </mxCell>
        <mxCell id="Y7v8tl9uEdxJ32fVvmhg-2" value="&lt;font style=&quot;font-size: 16px;&quot;&gt;CRM&lt;/font&gt;" style="sketch=0;pointerEvents=1;shadow=0;dashed=0;html=1;strokeColor=none;fillColor=#CCCCCC;labelPosition=center;verticalLabelPosition=bottom;verticalAlign=top;outlineConnect=0;align=center;shape=mxgraph.office.users.csv_file;fontColor=#333333;" parent="PmAsDYt7ePFWswJWPdAt-1" vertex="1">
          <mxGeometry x="446.08" y="410" width="94.5" height="70" as="geometry" />
        </mxCell>
        <mxCell id="Y7v8tl9uEdxJ32fVvmhg-12" value="&lt;font style=&quot;font-size: 16px;&quot;&gt;ERP&lt;/font&gt;" style="sketch=0;pointerEvents=1;shadow=0;dashed=0;html=1;strokeColor=none;fillColor=#CCCCCC;labelPosition=center;verticalLabelPosition=bottom;verticalAlign=top;outlineConnect=0;align=center;shape=mxgraph.office.users.csv_file;" parent="PmAsDYt7ePFWswJWPdAt-1" vertex="1">
          <mxGeometry x="442.75" y="604" width="94.5" height="70" as="geometry" />
        </mxCell>
        <mxCell id="JOEkhZLCIWdWsLoKPhBo-0" value="" style="rounded=1;whiteSpace=wrap;html=1;fillColor=#f5f5f5;strokeColor=#666666;fillStyle=hatch;arcSize=5;fontColor=#333333;" vertex="1" parent="PmAsDYt7ePFWswJWPdAt-1">
          <mxGeometry x="973" y="340" width="220" height="440" as="geometry" />
        </mxCell>
        <mxCell id="JOEkhZLCIWdWsLoKPhBo-1" value="Silver Layer" style="rounded=1;whiteSpace=wrap;html=1;fillColor=#f5f5f5;strokeColor=#666666;fontSize=20;fontStyle=1;fontColor=#333333;" vertex="1" parent="PmAsDYt7ePFWswJWPdAt-1">
          <mxGeometry x="973" y="280" width="220" height="50" as="geometry" />
        </mxCell>
        <mxCell id="JOEkhZLCIWdWsLoKPhBo-2" value="crm_sales_details" style="rounded=1;whiteSpace=wrap;html=1;fillColor=#f5f5f5;strokeColor=#666666;fontSize=16;fontStyle=0;fontColor=#333333;" vertex="1" parent="PmAsDYt7ePFWswJWPdAt-1">
          <mxGeometry x="994" y="386" width="180" height="40" as="geometry" />
        </mxCell>
        <mxCell id="JOEkhZLCIWdWsLoKPhBo-3" value="crm_cust_info" style="rounded=1;whiteSpace=wrap;html=1;fillColor=#f5f5f5;strokeColor=#666666;fontSize=16;fontStyle=0;fontColor=#333333;" vertex="1" parent="PmAsDYt7ePFWswJWPdAt-1">
          <mxGeometry x="994" y="440" width="180" height="40" as="geometry" />
        </mxCell>
        <mxCell id="JOEkhZLCIWdWsLoKPhBo-4" value="crm_prd_info" style="rounded=1;whiteSpace=wrap;html=1;fillColor=#f5f5f5;strokeColor=#666666;fontSize=16;fontStyle=0;fontColor=#333333;" vertex="1" parent="PmAsDYt7ePFWswJWPdAt-1">
          <mxGeometry x="994" y="500" width="180" height="40" as="geometry" />
        </mxCell>
        <mxCell id="JOEkhZLCIWdWsLoKPhBo-5" value="erp_cust_az12" style="rounded=1;whiteSpace=wrap;html=1;fillColor=#f5f5f5;strokeColor=#666666;fontSize=16;fontStyle=0;fontColor=#333333;" vertex="1" parent="PmAsDYt7ePFWswJWPdAt-1">
          <mxGeometry x="994" y="580" width="180" height="40" as="geometry" />
        </mxCell>
        <mxCell id="JOEkhZLCIWdWsLoKPhBo-6" value="erp_loc_a101" style="rounded=1;whiteSpace=wrap;html=1;fillColor=#f5f5f5;strokeColor=#666666;fontSize=16;fontStyle=0;fontColor=#333333;" vertex="1" parent="PmAsDYt7ePFWswJWPdAt-1">
          <mxGeometry x="994" y="634" width="180" height="40" as="geometry" />
        </mxCell>
        <mxCell id="JOEkhZLCIWdWsLoKPhBo-7" value="erp_px_cat_g1v2" style="rounded=1;whiteSpace=wrap;html=1;fillColor=#f5f5f5;strokeColor=#666666;fontSize=16;fontStyle=0;fontColor=#333333;" vertex="1" parent="PmAsDYt7ePFWswJWPdAt-1">
          <mxGeometry x="994" y="694" width="180" height="40" as="geometry" />
        </mxCell>
        <mxCell id="JOEkhZLCIWdWsLoKPhBo-16" value="&lt;font style=&quot;font-size: 24px;&quot;&gt;Data flow&lt;/font&gt;" style="rounded=1;whiteSpace=wrap;html=1;strokeColor=none;" vertex="1" parent="PmAsDYt7ePFWswJWPdAt-1">
          <mxGeometry x="390" y="200" width="120" height="40" as="geometry" />
        </mxCell>
      </root>
    </mxGraphModel>
  </diagram>
</mxfile>
